<svg width="70" height="32" viewBox="0 0 70 32" fill="none" xmlns="http://www.w3.org/2000/svg">
<rect width="70" height="32" rx="16" fill="#308E21"/>
<path d="M20.0011 20.1733L15.2988 22.8054L16.349 17.5199L12.3926 13.8612L17.7439 13.2267L20.0011 8.33331L22.2581 13.2267L27.6095 13.8612L23.6531 17.5199L24.7033 22.8054L20.0011 20.1733Z" fill="white"/>
<path d="M38.39 12.37H32.72V10.318H41.288V12.118L36.806 22H33.89L38.39 12.37ZM43.6114 19.516H46.3474L44.6554 24.016H42.7834L43.6114 19.516ZM51.8709 22.18C51.0429 22.18 49.8009 22.114 48.1449 21.982V19.804C49.6329 20.08 50.7549 20.218 51.5109 20.218C52.1709 20.218 52.6509 20.146 52.9509 20.002C53.2509 19.846 53.4009 19.606 53.4009 19.282V17.536C53.4009 17.212 53.2929 16.984 53.0769 16.852C52.8609 16.708 52.5069 16.636 52.0149 16.636H48.4149V10.318H55.7949V12.334H51.0429V14.71H52.8789C53.5749 14.71 54.2529 14.842 54.9129 15.106C55.2729 15.262 55.5609 15.502 55.7769 15.826C55.9929 16.15 56.1009 16.528 56.1009 16.96V19.408C56.1009 19.876 56.0109 20.296 55.8309 20.668C55.6509 21.028 55.4229 21.304 55.1469 21.496C54.9069 21.676 54.5829 21.82 54.1749 21.928C53.7789 22.036 53.3949 22.108 53.0229 22.144C52.5909 22.168 52.2069 22.18 51.8709 22.18Z" fill="white"/>
</svg>
